<?xml version="1.0" encoding="UTF-8" standalone="no"?>
<svg
   width="100%"
   height="auto"
   viewBox="0 0 783 690"
   version="1.1"
   id="svg50"
   sodipodi:docname="openings_editado.svg"
   xml:space="preserve"
   inkscape:version="1.4.3 (0d15f75, 2025-12-25)"
   xmlns:inkscape="http://www.inkscape.org/namespaces/inkscape"
   xmlns:sodipodi="http://sodipodi.sourceforge.net/DTD/sodipodi-0.dtd"
   xmlns="http://www.w3.org/2000/svg"
   xmlns:svg="http://www.w3.org/2000/svg"><defs
     id="defs50"><linearGradient
       id="wr"
       x1="30.2715"
       y1="166.49324"
       x2="141.26698"
       y2="166.49324"
       gradientTransform="scale(3.9641248,0.25226249)"
       gradientUnits="userSpaceOnUse"><stop
         offset="0%"
         stop-color="#D73027"
         id="stop1" /><stop
         offset="50%"
         stop-color="#FFFF00"
         id="stop2" /><stop
         offset="100%"
         stop-color="#1A9850"
         id="stop3" /></linearGradient></defs><sodipodi:namedview
     id="namedview50"
     pagecolor="#ffffff"
     bordercolor="#000000"
     borderopacity="0.25"
     inkscape:showpageshadow="2"
     inkscape:pageopacity="0.0"
     inkscape:pagecheckerboard="0"
     inkscape:deskcolor="#d1d1d1"
     showguides="true"
     inkscape:zoom="1.345"
     inkscape:cx="402.60223"
     inkscape:cy="284.38662"
     inkscape:window-width="1920"
     inkscape:window-height="1009"
     inkscape:window-x="-8"
     inkscape:window-y="-8"
     inkscape:window-maximized="1"
     inkscape:current-layer="svg50" /><path
     fill="#e0bb12"
     display=""
     d="m 403.49999,108.66928 a 191.33333,191.33333 0 0 1 120.3112,43.37113 l -60.40499,72.89376 a 96.666667,96.666667 0 0 0 -59.90621,-21.59566 z"
     data-darkreader-inline-fill=""
     id="path1"><title
       id="title1">Barnes Defense</title></path><path
     fill="#cccccc"
     display=""
     d="m 525.35114,153.31653 a 191.33333,191.33333 0 0 1 67.79578,162.87595 l -94.28644,-8.50473 a 96.666667,96.666667 0 0 0 -33.91432,-81.47746 z"
     data-darkreader-inline-fill=""
     id="path2"
     style="fill:#ff8a3c;fill-opacity:1"><title
       id="title2">Bishop's Opening</title></path><path
     fill="#cccccc"
     display=""
     d="M 592.96725,318.18438 A 191.33333,191.33333 0 0 1 319.02156,472.16212 l 41.74868,-84.96653 a 96.666667,96.666667 0 0 0 137.91057,-77.51594 z"
     data-darkreader-inline-fill=""
     id="path3"
     style="fill:#ff7f2a"><title
       id="title3">Four Knights Game</title></path><path
     fill="#cccccc"
     display=""
     d="m 317.22655,471.28013 a 191.33333,191.33333 0 0 1 -90.98188,-96.83214 l 87.40016,-36.37959 a 96.666667,96.666667 0 0 0 45.3304,48.24521 z"
     data-darkreader-inline-fill=""
     id="path4"
     style="fill:#ef8a45;fill-opacity:1"><title
       id="title4">French Defense</title></path><path
     fill="#cccccc"
     display=""
     d="m 225.47612,372.60158 a 191.33333,191.33333 0 0 1 24.95643,-188.72193 l 74.93967,57.84729 a 96.666667,96.666667 0 0 0 -12.49595,94.49504 z"
     data-darkreader-inline-fill=""
     id="path5"
     style="fill:#ec3737;fill-opacity:1"><title
       id="title5">Ruy Lopez</title></path><path
     fill="#c9cf16"
     display=""
     d="m 251.65463,182.29648 a 191.33333,191.33333 0 0 1 149.84538,-73.6272 v 94.66923 a 96.666667,96.666667 0 0 0 -74.90571,36.80525 z"
     data-darkreader-inline-fill=""
     id="path6"><title
       id="title6">Scandinavian Defense</title></path><path
     fill="#e0bb12"
     display=""
     d="m 403.49999,12.00174 a 288,288 0 0 1 181.99124,65.60624 l -60.4039,72.89244 A 193.33333,193.33333 0 0 0 403.49999,106.66925 Z"
     data-darkreader-inline-fill=""
     id="path7"><title
       id="title7">Barnes Defense</title></path><path
     fill="#dbc412"
     display=""
     d="M 587.03118,78.8841 A 288,288 0 0 1 689.5883,277.10225 l -94.3934,7.19893 A 193.33333,193.33333 0 0 0 526.62729,151.77654 Z"
     data-darkreader-inline-fill=""
     id="path8"><title
       id="title8">Berlin Defense</title></path><path
     fill="#d73027"
     display=""
     d="m 689.74039,279.09644 a 288,288 0 0 1 0.67506,13.92554 l -94.64712,1.9651 a 193.33333,193.33333 0 0 0 -0.42134,-8.6917 z"
     data-darkreader-inline-fill=""
     id="path9"><title
       id="title9">Bishop's Opening</title></path><path
     fill="#d73027"
     display=""
     d="m 690.45697,295.02153 a 288,288 0 0 1 -1.03338,29.8552 l -94.28473,-8.50457 a 193.33333,193.33333 0 0 0 0.67099,-19.38553 z"
     data-darkreader-inline-fill=""
     id="path10"><title
       id="title10">Horwitz Gambit</title></path><path
     fill="#e69915"
     display=""
     d="m 689.24392,326.86862 a 288,288 0 0 1 -20.475,82.88047 l -87.39858,-36.37894 a 193.33333,193.33333 0 0 0 13.58885,-55.0061 z"
     data-darkreader-inline-fill=""
     id="path11"><title
       id="title11">Four Knights Game</title></path><path
     fill="#e59d14"
     display=""
     d="M 668.00036,411.59551 A 288,288 0 0 1 351.94773,583.5286 L 368.8881,490.38912 A 193.33333,193.33333 0 0 0 580.60179,375.21657 Z"
     data-darkreader-inline-fill=""
     id="path12"><title
       id="title12">Italian Variation</title></path><path
     fill="#d73027"
     display=""
     d="m 349.98003,583.17071 a 288,288 0 0 1 -73.5884,-24.24856 l 41.74793,-84.96499 a 193.33333,193.33333 0 0 0 48.78084,16.07407 z"
     data-darkreader-inline-fill=""
     id="path13"><title
       id="title13">Spanish Variation</title></path><path
     fill="#e16a1c"
     display=""
     d="m 274.59662,558.04016 a 288,288 0 0 1 -45.69934,-28.24439 l 57.3263,-75.33681 a 193.33333,193.33333 0 0 0 30.12097,18.61622 z"
     data-darkreader-inline-fill=""
     id="path14"><title
       id="title14">Advance Variation</title></path><path
     fill="#e59d14"
     display=""
     d="m 227.30568,528.58467 a 288,288 0 0 1 -72.37234,-81.42914 l 81.54427,-48.08815 a 193.33333,193.33333 0 0 0 48.15437,54.18049 z"
     data-darkreader-inline-fill=""
     id="path15"><title
       id="title15">French Defense</title></path><path
     fill="#e59116"
     display=""
     d="m 153.91741,445.4328 a 288,288 0 0 1 -13.72759,-26.53213 l 86.35829,-38.78382 a 193.33333,193.33333 0 0 0 8.91357,17.22779 z"
     data-darkreader-inline-fill=""
     id="path16"><title
       id="title16">Hecht-Reefschläger Variation</title></path><path
     fill="#d73027"
     display=""
     d="m 139.37046,417.07623 a 288,288 0 0 1 -2.37082,-5.48072 l 87.39857,-36.37894 a 193.33333,193.33333 0 0 0 1.33053,3.07584 z"
     data-darkreader-inline-fill=""
     id="path17"><title
       id="title17">McCutcheon Variation</title></path><path
     fill="#d73027"
     display=""
     d="m 136.23108,409.74909 a 288,288 0 0 1 -9.93611,-28.17223 l 90.88299,-26.49945 a 193.33333,193.33333 0 0 0 6.4517,18.29274 z"
     data-darkreader-inline-fill=""
     id="path18"><title
       id="title18">Berlin Defense</title></path><path
     fill="#d73027"
     display=""
     d="m 125.73514,379.65683 a 288,288 0 0 1 -1.59206,-5.75539 l 91.58156,-23.97405 a 193.33333,193.33333 0 0 0 0.89349,3.22998 z"
     data-darkreader-inline-fill=""
     id="path19"><title
       id="title19">Bird Variation</title></path><path
     fill="#e3731b"
     display=""
     d="m 123.63659,371.96665 a 288,288 0 0 1 -7.88051,-45.09803 l 94.28473,-8.50457 a 193.33333,193.33333 0 0 0 5.17735,29.62855 z"
     data-darkreader-inline-fill=""
     id="path20"><title
       id="title20">Bird's Defense Deferred</title></path><path
     fill="#d73027"
     display=""
     d="m 115.57641,324.87673 a 288,288 0 0 1 32.51876,-159.8663 l 83.46999,44.66206 a 193.33333,193.33333 0 0 0 -21.70402,106.69966 z"
     data-darkreader-inline-fill=""
     id="path21"><title
       id="title21">Brix Variation</title></path><path
     fill="#d73027"
     display=""
     d="m 149.03872,163.24701 a 288,288 0 0 1 2.88983,-5.2257 l 82.20196,46.95504 a 193.33333,193.33333 0 0 0 -1.6218,2.93272 z"
     data-darkreader-inline-fill=""
     id="path22"><title
       id="title22">Classical Defense</title></path><path
     fill="#d73027"
     display=""
     d="m 152.92054,156.28468 a 288,288 0 0 1 16.22957,-25.07991 l 76.51055,55.75011 a 193.33333,193.33333 0 0 0 -10.53816,16.28484 z"
     data-darkreader-inline-fill=""
     id="path23"><title
       id="title23">Morphy Defense</title></path><path
     fill="#d73027"
     display=""
     d="m 170.32791,129.58838 a 288,288 0 0 1 3.58311,-4.77707 l 74.93832,57.84623 a 193.33333,193.33333 0 0 0 -2.01088,2.68095 z"
     data-darkreader-inline-fill=""
     id="path24"><title
       id="title24">Ruy Lopez</title></path><path
     fill="#c9cf16"
     display=""
     d="M 175.1331,123.22813 A 288,288 0 0 1 401.50001,12.00174 v 94.66751 a 193.33333,193.33333 0 0 0 -151.42859,74.40512 z"
     data-darkreader-inline-fill=""
     id="path25"><title
       id="title25">Scandinavian Defense</title></path><g
     id="labels"
     transform="translate(402.5,300)"
     text-anchor="middle"><text style="fill:#000000;stroke:#ffffff;stroke-width:2px;paint-order:stroke"
       transform="rotate(-90,24.166667,24.166667)"
       id="text25"><tspan
         x="0"
         y="4"
         style="font-style:italic;font-weight:normal;font-size:10px;font-family:Arial, sans-serif;fill:#000000"
         data-darkreader-inline-fill=""
         id="tspan25" /></text><text style="fill:#000000;stroke:#ffffff;stroke-width:2px;paint-order:stroke"
       transform="rotate(-70.176211,-72.5,-103.2026)"
       id="text26"><tspan
         x="0"
         y="4"
         style="font-style:italic;font-weight:normal;font-size:10px;font-family:Arial, sans-serif;fill:#000000"
         data-darkreader-inline-fill=""
         id="tspan26">Barnes Defense</tspan></text><text style="fill:#000000;stroke:#ffffff;stroke-width:2px;paint-order:stroke"
       transform="rotate(-22.599119,-72.5,-362.84158)"
       id="text27"><tspan
         x="0"
         y="4"
         style="font-style:italic;font-weight:normal;font-size:10px;font-family:Arial, sans-serif;fill:#000000"
         data-darkreader-inline-fill=""
         id="tspan27">Bishop's Opening</tspan></text><text style="fill:#000000;stroke:#ffffff;stroke-width:2px;paint-order:stroke"
       transform="rotate(60.660793,-72.5,123.91792)"
       id="text28"><tspan
         x="0"
         y="4"
         style="font-style:italic;font-weight:normal;font-size:10px;font-family:Arial, sans-serif;fill:#000000"
         data-darkreader-inline-fill=""
         id="tspan28">Four Knights Game</tspan></text><text style="fill:#000000;stroke:#ffffff;stroke-width:2px;paint-order:stroke"
       transform="rotate(-43.215859,72.5,183.04008)"
       id="text29"><tspan
         x="0"
         y="4"
         style="font-style:italic;font-weight:normal;font-size:10px;font-family:Arial, sans-serif;fill:#000000"
         data-darkreader-inline-fill=""
         id="tspan29">French Defense</tspan></text><text style="fill:#000000;stroke:#ffffff;stroke-width:2px;paint-order:stroke"
       transform="rotate(7.5330396,72.5,-1101.2709)"
       id="text30"><tspan
         x="0"
         y="4"
         style="font-style:italic;font-weight:normal;font-size:10px;font-family:Arial, sans-serif;fill:#000000"
         data-darkreader-inline-fill=""
         id="tspan30">Ruy Lopez</tspan></text><text
       transform="rotate(63.832599,72.5,-116.4023)"
       id="text31"
       style="white-space:pre;inline-size:72.5217;fill:#000000;stroke:#ffffff;stroke-width:2px;paint-order:stroke"
       xml:space="preserve"><tspan
         x="0"
         y="4"
         id="tspan2"><tspan
           style="font-style:italic;font-size:10px;font-family:Arial, sans-serif"
           id="tspan1">Scandinavian</tspan><tspan
           y="4"
           id="tspan3"> </tspan></tspan><tspan
         x="0"
         y="19"
         id="tspan5"><tspan
           style="font-style:italic;font-size:10px;font-family:Arial, sans-serif"
           id="tspan4">Defense</tspan></tspan></text><text style="fill:#000000;stroke:#ffffff;stroke-width:2px;paint-order:stroke"
       transform="rotate(-70.176211,-120.83333,-172.00433)"
       id="text32"><tspan
         x="0"
         y="4"
         style="font-style:italic;font-weight:normal;font-size:10px;font-family:Arial, sans-serif;fill:#000000"
         data-darkreader-inline-fill=""
         id="tspan32">Barnes Defense</tspan></text><text style="fill:#000000;stroke:#ffffff;stroke-width:2px;paint-order:stroke"
       transform="rotate(-27.356828,-120.83333,-496.49109)"
       id="text33"><tspan
         x="0"
         y="4"
         style="font-style:italic;font-weight:normal;font-size:10px;font-family:Arial, sans-serif;fill:#000000"
         data-darkreader-inline-fill=""
         id="tspan33">Berlin Defense</tspan></text><text style="fill:#000000;stroke:#ffffff;stroke-width:2px;paint-order:stroke"
       transform="rotate(-2.7753304,-120.83333,-4988.153)"
       id="text34"><tspan
         x="0"
         y="4"
         style="font-style:italic;font-weight:normal;font-size:10px;font-family:Arial, sans-serif;fill:#000000"
         data-darkreader-inline-fill=""
         id="tspan34">Bishop's Opening</tspan></text><text style="fill:#000000;stroke:#ffffff;stroke-width:2px;paint-order:stroke"
       transform="rotate(1.9823789,-120.83333,6984.0831)"
       id="text35"><tspan
         x="0"
         y="4"
         style="font-style:italic;font-weight:normal;font-size:10px;font-family:Arial, sans-serif;fill:#000000"
         data-darkreader-inline-fill=""
         id="tspan35">Horwitz Gambit</tspan></text><text style="fill:#000000;stroke:#ffffff;stroke-width:2px;paint-order:stroke"
       transform="rotate(13.876652,-120.83333,992.94343)"
       id="text36"><tspan
         x="0"
         y="4"
         style="font-style:italic;font-weight:normal;font-size:10px;font-family:Arial, sans-serif;fill:#000000"
         data-darkreader-inline-fill=""
         id="tspan36">Four Knights Game</tspan></text><text style="fill:#000000;stroke:#ffffff;stroke-width:2px;paint-order:stroke"
       transform="rotate(61.453744,-120.83333,203.28928)"
       id="text37"><tspan
         x="0"
         y="4"
         style="font-style:italic;font-weight:normal;font-size:10px;font-family:Arial, sans-serif;fill:#000000"
         data-darkreader-inline-fill=""
         id="tspan37">Italian Variation</tspan></text><text style="fill:#000000;stroke:#ffffff;stroke-width:2px;paint-order:stroke"
       transform="rotate(-71.762115,120.83333,167.04094)"
       id="text38"><tspan
         x="0"
         y="4"
         style="font-style:italic;font-weight:normal;font-size:10px;font-family:Arial, sans-serif;fill:#000000"
         data-darkreader-inline-fill=""
         id="tspan38">Spanish Variation</tspan></text><text style="fill:#000000;stroke:#ffffff;stroke-width:2px;paint-order:stroke"
       transform="rotate(-58.281938,120.83333,216.72982)"
       id="text39"><tspan
         x="0"
         y="4"
         style="font-style:italic;font-weight:normal;font-size:10px;font-family:Arial, sans-serif;fill:#000000"
         data-darkreader-inline-fill=""
         id="tspan39">Advance Variation</tspan></text><text style="fill:#000000;stroke:#ffffff;stroke-width:2px;paint-order:stroke"
       transform="rotate(-41.629956,120.83333,317.84567)"
       id="text40"><tspan
         x="0"
         y="4"
         style="font-style:italic;font-weight:normal;font-size:10px;font-family:Arial, sans-serif;fill:#000000"
         data-darkreader-inline-fill=""
         id="tspan40">French Defense</tspan></text><text style="fill:#000000;stroke:#ffffff;stroke-width:2px;paint-order:stroke"
       transform="rotate(-27.356828,120.83333,496.49109)"
       id="text41"><tspan
         x="0"
         y="4"
         style="font-style:italic;font-weight:normal;font-size:10px;font-family:Arial, sans-serif;fill:#000000"
         data-darkreader-inline-fill=""
         id="tspan41">Hecht-Reefschläger Variation</tspan></text><text style="fill:#000000;stroke:#ffffff;stroke-width:2px;paint-order:stroke"
       transform="rotate(-23.39207,120.83333,583.68549)"
       id="text42"><tspan
         x="0"
         y="4"
         style="font-style:italic;font-weight:normal;font-size:10px;font-family:Arial, sans-serif;fill:#000000"
         data-darkreader-inline-fill=""
         id="tspan42">McCutcheon Variation</tspan></text><text style="fill:#000000;stroke:#ffffff;stroke-width:2px;paint-order:stroke"
       transform="rotate(-19.427313,120.83333,705.89102)"
       id="text43"><tspan
         x="0"
         y="4"
         style="font-style:italic;font-weight:normal;font-size:10px;font-family:Arial, sans-serif;fill:#000000"
         data-darkreader-inline-fill=""
         id="tspan43">Berlin Defense</tspan></text><text style="fill:#000000;stroke:#ffffff;stroke-width:2px;paint-order:stroke"
       transform="rotate(-15.462555,120.83333,890.04307)"
       id="text44"><tspan
         x="0"
         y="4"
         style="font-style:italic;font-weight:normal;font-size:10px;font-family:Arial, sans-serif;fill:#000000"
         data-darkreader-inline-fill=""
         id="tspan44">Bird Variation</tspan></text><text style="fill:#000000;stroke:#ffffff;stroke-width:2px;paint-order:stroke"
       transform="rotate(-9.9118943,120.83333,1393.4703)"
       id="text45"><tspan
         x="0"
         y="4"
         style="font-style:italic;font-weight:normal;font-size:10px;font-family:Arial, sans-serif;fill:#000000"
         data-darkreader-inline-fill=""
         id="tspan45">Bird's Defense Deferred</tspan></text><text style="fill:#000000;stroke:#ffffff;stroke-width:2px;paint-order:stroke"
       transform="rotate(11.497797,120.83333,-1200.2283)"
       id="text46"><tspan
         x="0"
         y="4"
         style="font-style:italic;font-weight:normal;font-size:10px;font-family:Arial, sans-serif;fill:#000000"
         data-darkreader-inline-fill=""
         id="tspan46">Brix Variation</tspan></text><text style="fill:#000000;stroke:#ffffff;stroke-width:2px;paint-order:stroke"
       transform="rotate(28.942731,120.83333,-468.19298)"
       id="text47"><tspan
         x="0"
         y="4"
         style="font-style:italic;font-weight:normal;font-size:10px;font-family:Arial, sans-serif;fill:#000000"
         data-darkreader-inline-fill=""
         id="tspan47">Classical Defense</tspan></text><text style="fill:#000000;stroke:#ffffff;stroke-width:2px;paint-order:stroke"
       transform="rotate(32.907489,120.83333,-409.13913)"
       id="text48"><tspan
         x="0"
         y="4"
         style="font-style:italic;font-weight:normal;font-size:10px;font-family:Arial, sans-serif;fill:#000000"
         data-darkreader-inline-fill=""
         id="tspan48">Morphy Defense</tspan></text><text style="fill:#000000;stroke:#ffffff;stroke-width:2px;paint-order:stroke"
       transform="rotate(36.872247,120.83333,-362.47523)"
       id="text49"><tspan
         x="0"
         y="4"
         style="font-style:italic;font-weight:normal;font-size:10px;font-family:Arial, sans-serif;fill:#000000"
         data-darkreader-inline-fill=""
         id="tspan49">Ruy Lopez</tspan></text><text
       transform="rotate(63.832599)"
       id="text50"
       x="-236.28162"
       y="2.6459718"
       style="white-space:pre;inline-size:75.1908;fill:#000000;stroke:#ffffff;stroke-width:2px;paint-order:stroke"
       xml:space="preserve"><tspan
         x="-236.28162"
         y="2.6459718"
         id="tspan7"><tspan
           style="font-style:italic;font-size:10px;font-family:Arial, sans-serif"
           id="tspan6">Scandinavian</tspan><tspan
           y="2.6459718"
           id="tspan8"> </tspan></tspan><tspan
         x="-236.28162"
         y="17.645971"
         id="tspan10"><tspan
           style="font-style:italic;font-size:10px;font-family:Arial, sans-serif"
           id="tspan9">Defense</tspan></tspan></text></g><g
     id="g50"
     transform="translate(65.666797,593.37554)"><text
       x="340"
       y="28"
       text-anchor="middle"
       font-family="sans-serif"
       font-size="13"
       font-weight="600"
       fill="#333"
       style="color:#ffffff;font-weight:600;font-size:13px;font-family:sans-serif;dominant-baseline:auto;text-anchor:middle;opacity:1;fill:#333333;stroke:none;stroke-width:1px;stroke-linecap:butt;stroke-linejoin:miter;fill:#000000;stroke:#ffffff;stroke-width:2px;paint-order:stroke"
       id="text3">Win Rate</text><rect
       x="120"
       y="42"
       width="440"
       height="28"
       rx="4"
       fill="url(#wr)"
       style="color:#ffffff;font-weight:400;font-size:16px;font-family:'Anthropic Sans', '-apple-system', BlinkMacSystemFont, 'Segoe UI', sans-serif;dominant-baseline:auto;text-anchor:start;opacity:1;fill:url(#wr);stroke:none;stroke-width:1px;stroke-linecap:butt;stroke-linejoin:miter"
       id="rect3" /><text
       x="120"
       y="90"
       text-anchor="middle"
       font-family="sans-serif"
       font-size="12"
       fill="#555"
       style="color:#ffffff;font-weight:400;font-size:12px;font-family:sans-serif;dominant-baseline:auto;text-anchor:middle;opacity:1;fill:#555555;stroke:none;stroke-width:1px;stroke-linecap:butt;stroke-linejoin:miter;fill:#000000;stroke:#ffffff;stroke-width:2px;paint-order:stroke"
       id="text4">0%</text><text
       x="340"
       y="90"
       text-anchor="middle"
       font-family="sans-serif"
       font-size="12"
       fill="#555"
       style="color:#ffffff;font-weight:400;font-size:12px;font-family:sans-serif;dominant-baseline:auto;text-anchor:middle;opacity:1;fill:#555555;stroke:none;stroke-width:1px;stroke-linecap:butt;stroke-linejoin:miter;fill:#000000;stroke:#ffffff;stroke-width:2px;paint-order:stroke"
       id="text5">50%</text><text
       x="560"
       y="90"
       text-anchor="middle"
       font-family="sans-serif"
       font-size="12"
       fill="#555"
       style="color:#ffffff;font-weight:400;font-size:12px;font-family:sans-serif;dominant-baseline:auto;text-anchor:middle;opacity:1;fill:#555555;stroke:none;stroke-width:1px;stroke-linecap:butt;stroke-linejoin:miter;fill:#000000;stroke:#ffffff;stroke-width:2px;paint-order:stroke"
       id="text6">100%</text><line
       x1="120"
       y1="70"
       x2="120"
       y2="78"
       stroke="#999"
       stroke-width="1"
       style="color:#ffffff;font-weight:400;font-size:16px;font-family:'Anthropic Sans', '-apple-system', BlinkMacSystemFont, 'Segoe UI', sans-serif;dominant-baseline:auto;text-anchor:start;opacity:1;fill:#000000;stroke:#999999;stroke-width:1px;stroke-linecap:butt;stroke-linejoin:miter"
       id="line6" /><line
       x1="340"
       y1="70"
       x2="340"
       y2="78"
       stroke="#999"
       stroke-width="1"
       style="color:#ffffff;font-weight:400;font-size:16px;font-family:'Anthropic Sans', '-apple-system', BlinkMacSystemFont, 'Segoe UI', sans-serif;dominant-baseline:auto;text-anchor:start;opacity:1;fill:#000000;stroke:#999999;stroke-width:1px;stroke-linecap:butt;stroke-linejoin:miter"
       id="line7" /><line
       x1="560"
       y1="70"
       x2="560"
       y2="78"
       stroke="#999"
       stroke-width="1"
       style="color:#ffffff;font-weight:400;font-size:16px;font-family:'Anthropic Sans', '-apple-system', BlinkMacSystemFont, 'Segoe UI', sans-serif;dominant-baseline:auto;text-anchor:start;opacity:1;fill:#000000;stroke:#999999;stroke-width:1px;stroke-linecap:butt;stroke-linejoin:miter"
       id="line8" /></g></svg>
